<svg width="110" height="57" viewBox="0 0 110 57" fill="none" xmlns="http://www.w3.org/2000/svg">
<rect x="15.2421" y="22.2923" width="30.661" height="10.2673" transform="rotate(-45 15.2421 22.2923)" fill="#F6BD60"/>
<rect x="27.7196" y="16.5974" width="53.2693" height="9.92953" fill="#F6BD60"/>
<rect x="36.9227" y="43.9705" width="30.661" height="10.2673" transform="rotate(-135 36.9227 43.9705)" fill="#F6BD60"/>
<path d="M2.48401 51.3013V22.0044H13.3239C16.4749 22.0044 18.9163 22.675 20.6481 24.0161C22.3929 25.3443 23.2653 27.2128 23.2653 29.6216C23.2653 31.093 22.9202 32.3951 22.2301 33.5279C21.54 34.6477 20.609 35.5005 19.4371 36.0865C21.1038 36.5812 22.3994 37.4341 23.3239 38.6451C24.2614 39.843 24.7301 41.3143 24.7301 43.0591C24.7301 44.7258 24.3199 46.1776 23.4996 47.4146C22.6923 48.6385 21.5465 49.5956 20.0621 50.2857C18.5908 50.9628 16.859 51.3013 14.8668 51.3013H2.48401ZM8.49963 34.2701H12.9918C14.333 34.2701 15.3942 33.951 16.1754 33.313C16.9567 32.675 17.3473 31.8091 17.3473 30.7154C17.3473 29.6477 16.9502 28.8078 16.1559 28.1958C15.3746 27.5708 14.2874 27.2583 12.8942 27.2583H8.49963V34.2701ZM8.49963 46.0474H13.3629C14.4306 46.0474 15.3551 45.8977 16.1364 45.5982C16.9176 45.2857 17.5166 44.8495 17.9332 44.2896C18.3629 43.7167 18.5778 43.0526 18.5778 42.2974C18.5778 41.5422 18.3824 40.8977 17.9918 40.3638C17.6142 39.8299 17.0608 39.4263 16.3317 39.1529C15.6025 38.8664 14.7366 38.7232 13.734 38.7232H8.49963V46.0474ZM45.8043 51.3013H40.9215L40.6285 48.9771C39.9124 49.8365 39.027 50.507 37.9723 50.9888C36.9176 51.4576 35.7587 51.6919 34.4957 51.6919C33.1285 51.6919 31.9111 51.4315 30.8434 50.9107C29.7757 50.3768 28.9358 49.6477 28.3239 48.7232C27.7119 47.7857 27.4059 46.7245 27.4059 45.5396C27.4059 44.2896 27.7379 43.1893 28.402 42.2388C29.066 41.2883 29.9775 40.5461 31.1364 40.0122C32.3082 39.4654 33.6364 39.1919 35.1207 39.1919C35.9931 39.1919 36.8655 39.2896 37.7379 39.4849C38.6233 39.6802 39.4436 39.9536 40.1989 40.3052V39.7974C40.1989 39.0161 39.9775 38.3456 39.5348 37.7857C39.1051 37.2128 38.5061 36.7701 37.7379 36.4576C36.9827 36.1451 36.1364 35.9888 35.1989 35.9888C34.3004 35.9888 33.4085 36.132 32.5231 36.4185C31.6507 36.7049 30.8434 37.1346 30.1012 37.7076L28.5778 33.4302C29.8929 32.7531 31.221 32.2453 32.5621 31.9068C33.9163 31.5552 35.2249 31.3794 36.4879 31.3794C38.389 31.3794 40.0361 31.757 41.4293 32.5122C42.8226 33.2544 43.8968 34.3091 44.652 35.6763C45.4202 37.0305 45.8043 38.6385 45.8043 40.5005V51.3013ZM35.7262 47.3755C36.4684 47.3755 37.178 47.2128 37.8551 46.8872C38.5322 46.5617 39.0791 46.119 39.4957 45.5591C39.9254 44.9992 40.1533 44.3807 40.1793 43.7036V43.5669C39.6064 43.1763 38.9684 42.8768 38.2653 42.6685C37.5752 42.4471 36.872 42.3365 36.1559 42.3365C35.0882 42.3365 34.2158 42.5708 33.5387 43.0396C32.8616 43.5083 32.5231 44.1138 32.5231 44.856C32.5231 45.3378 32.6598 45.774 32.9332 46.1646C33.2197 46.5422 33.6038 46.8417 34.0856 47.063C34.5673 47.2714 35.1142 47.3755 35.7262 47.3755ZM67.484 48.1958C66.5335 49.2896 65.3681 50.149 63.9879 50.774C62.6077 51.3859 61.0908 51.6919 59.4371 51.6919C57.4319 51.6919 55.6351 51.2557 54.0465 50.3833C52.471 49.4979 51.2275 48.287 50.316 46.7505C49.4176 45.2141 48.9684 43.4758 48.9684 41.5357C48.9684 39.5826 49.4176 37.8443 50.316 36.3208C51.2275 34.7844 52.471 33.5799 54.0465 32.7076C55.6351 31.8221 57.4319 31.3794 59.4371 31.3794C61.0778 31.3794 62.5882 31.6854 63.9684 32.2974C65.3486 32.9094 66.514 33.7557 67.4645 34.8365L64.1637 38.2935C63.6559 37.7076 63.0114 37.2518 62.2301 36.9263C61.4619 36.5878 60.6546 36.4185 59.8082 36.4185C58.8317 36.4185 57.9593 36.6398 57.191 37.0826C56.4228 37.5122 55.8173 38.1112 55.3746 38.8794C54.9319 39.6346 54.7106 40.507 54.7106 41.4966C54.7106 42.4992 54.9319 43.3911 55.3746 44.1724C55.8173 44.9536 56.4228 45.5656 57.191 46.0083C57.9593 46.438 58.8317 46.6529 59.8082 46.6529C60.6546 46.6529 61.4684 46.4901 62.2496 46.1646C63.0309 45.826 63.6689 45.3638 64.1637 44.7779L67.484 48.1958ZM76.527 51.3013H70.9215V22.0044H76.527V40.0122L78.441 37.7076L84.066 31.7701H91.0778L82.816 40.4615L92.0543 51.3013H84.8082L78.9684 43.9771L76.527 46.2036V51.3013Z" fill="#F28482"/>
<path d="M80.7819 16.5975C83.3894 16.5975 85.9714 17.1111 88.3804 18.1089C90.7895 19.1068 92.9783 20.5694 94.8221 22.4131C96.6659 24.2569 98.1285 26.4458 99.1263 28.8548C100.124 31.2639 100.638 33.8458 100.638 36.4533C100.638 39.0608 100.124 41.6428 99.1263 44.0518C98.1285 46.4608 96.6659 48.6497 94.8221 50.4935C92.9783 52.3373 90.7895 53.7999 88.3804 54.7977C85.9714 55.7956 83.3894 56.3091 80.7819 56.3091L80.7819 46.3812C82.0857 46.3812 83.3767 46.1244 84.5812 45.6255C85.7857 45.1266 86.8801 44.3953 87.802 43.4734C88.7239 42.5515 89.4552 41.4571 89.9541 40.2526C90.4531 39.0481 90.7099 37.7571 90.7099 36.4533C90.7099 35.1496 90.4531 33.8586 89.9541 32.6541C89.4552 31.4496 88.7239 30.3551 87.802 29.4332C86.8801 28.5113 85.7857 27.7801 84.5812 27.2811C83.3767 26.7822 82.0857 26.5254 80.7819 26.5254V16.5975Z" fill="#F6BD60"/>
</svg>
