<svg width="111" height="57" viewBox="0 0 111 57" fill="none" xmlns="http://www.w3.org/2000/svg">
<rect x="15.9938" y="22.2923" width="30.661" height="10.2673" transform="rotate(-45 15.9938 22.2923)" fill="#001524"/>
<rect x="28.4714" y="16.5974" width="53.2693" height="9.92953" fill="#001524"/>
<rect x="37.6744" y="43.9705" width="30.661" height="10.2673" transform="rotate(-135 37.6744 43.9705)" fill="#001524"/>
<path d="M3.23573 51.3013V22.0044H14.0756C17.2266 22.0044 19.668 22.675 21.3998 24.0161C23.1446 25.3443 24.017 27.2128 24.017 29.6216C24.017 31.093 23.6719 32.3951 22.9818 33.5279C22.2917 34.6477 21.3607 35.5005 20.1889 36.0865C21.8555 36.5812 23.1511 37.4341 24.0756 38.6451C25.0131 39.843 25.4818 41.3143 25.4818 43.0591C25.4818 44.7258 25.0717 46.1776 24.2514 47.4146C23.4441 48.6385 22.2982 49.5956 20.8139 50.2857C19.3425 50.9628 17.6107 51.3013 15.6185 51.3013H3.23573ZM9.25136 34.2701H13.7435C15.0847 34.2701 16.1459 33.951 16.9271 33.313C17.7084 32.675 18.099 31.8091 18.099 30.7154C18.099 29.6477 17.7019 28.8078 16.9076 28.1958C16.1264 27.5708 15.0391 27.2583 13.6459 27.2583H9.25136V34.2701ZM9.25136 46.0474H14.1146C15.1823 46.0474 16.1068 45.8977 16.8881 45.5982C17.6693 45.2857 18.2683 44.8495 18.685 44.2896C19.1146 43.7167 19.3295 43.0526 19.3295 42.2974C19.3295 41.5422 19.1342 40.8977 18.7435 40.3638C18.3659 39.8299 17.8126 39.4263 17.0834 39.1529C16.3542 38.8664 15.4883 38.7232 14.4857 38.7232H9.25136V46.0474ZM46.556 51.3013H41.6732L41.3803 48.9771C40.6641 49.8365 39.7787 50.507 38.724 50.9888C37.6693 51.4576 36.5105 51.6919 35.2475 51.6919C33.8803 51.6919 32.6628 51.4315 31.5951 50.9107C30.5274 50.3768 29.6876 49.6477 29.0756 48.7232C28.4636 47.7857 28.1576 46.7245 28.1576 45.5396C28.1576 44.2896 28.4896 43.1893 29.1537 42.2388C29.8178 41.2883 30.7292 40.5461 31.8881 40.0122C33.06 39.4654 34.3881 39.1919 35.8725 39.1919C36.7448 39.1919 37.6172 39.2896 38.4896 39.4849C39.3751 39.6802 40.1954 39.9536 40.9506 40.3052V39.7974C40.9506 39.0161 40.7292 38.3456 40.2865 37.7857C39.8568 37.2128 39.2579 36.7701 38.4896 36.4576C37.7344 36.1451 36.8881 35.9888 35.9506 35.9888C35.0521 35.9888 34.1602 36.132 33.2748 36.4185C32.4024 36.7049 31.5951 37.1346 30.8529 37.7076L29.3295 33.4302C30.6446 32.7531 31.9727 32.2453 33.3139 31.9068C34.668 31.5552 35.9766 31.3794 37.2396 31.3794C39.1407 31.3794 40.7878 31.757 42.181 32.5122C43.5743 33.2544 44.6485 34.3091 45.4037 35.6763C46.1719 37.0305 46.556 38.6385 46.556 40.5005V51.3013ZM36.4779 47.3755C37.2201 47.3755 37.9297 47.2128 38.6068 46.8872C39.2839 46.5617 39.8308 46.119 40.2475 45.5591C40.6771 44.9992 40.905 44.3807 40.931 43.7036V43.5669C40.3581 43.1763 39.7201 42.8768 39.017 42.6685C38.3269 42.4471 37.6238 42.3365 36.9076 42.3365C35.8399 42.3365 34.9675 42.5708 34.2904 43.0396C33.6133 43.5083 33.2748 44.1138 33.2748 44.856C33.2748 45.3378 33.4115 45.774 33.685 46.1646C33.9714 46.5422 34.3555 46.8417 34.8373 47.063C35.3191 47.2714 35.8659 47.3755 36.4779 47.3755ZM68.2357 48.1958C67.2852 49.2896 66.1198 50.149 64.7396 50.774C63.3594 51.3859 61.8425 51.6919 60.1889 51.6919C58.1836 51.6919 56.3868 51.2557 54.7982 50.3833C53.2227 49.4979 51.9792 48.287 51.0678 46.7505C50.1693 45.2141 49.7201 43.4758 49.7201 41.5357C49.7201 39.5826 50.1693 37.8443 51.0678 36.3208C51.9792 34.7844 53.2227 33.5799 54.7982 32.7076C56.3868 31.8221 58.1836 31.3794 60.1889 31.3794C61.8295 31.3794 63.3399 31.6854 64.7201 32.2974C66.1003 32.9094 67.2657 33.7557 68.2162 34.8365L64.9154 38.2935C64.4076 37.7076 63.7631 37.2518 62.9818 36.9263C62.2136 36.5878 61.4063 36.4185 60.56 36.4185C59.5834 36.4185 58.711 36.6398 57.9428 37.0826C57.1745 37.5122 56.5691 38.1112 56.1264 38.8794C55.6836 39.6346 55.4623 40.507 55.4623 41.4966C55.4623 42.4992 55.6836 43.3911 56.1264 44.1724C56.5691 44.9536 57.1745 45.5656 57.9428 46.0083C58.711 46.438 59.5834 46.6529 60.56 46.6529C61.4063 46.6529 62.2201 46.4901 63.0014 46.1646C63.7826 45.826 64.4206 45.3638 64.9154 44.7779L68.2357 48.1958ZM77.2787 51.3013H71.6732V22.0044H77.2787V40.0122L79.1928 37.7076L84.8178 31.7701H91.8295L83.5678 40.4615L92.806 51.3013H85.56L79.7201 43.9771L77.2787 46.2036V51.3013Z" fill="#FFECD1"/>
<path d="M81.5337 16.5975C84.1412 16.5975 86.7231 17.1111 89.1322 18.1089C91.5412 19.1068 93.7301 20.5694 95.5739 22.4131C97.4176 24.2569 98.8802 26.4458 99.8781 28.8548C100.876 31.2639 101.389 33.8458 101.389 36.4533C101.389 39.0608 100.876 41.6428 99.8781 44.0518C98.8802 46.4608 97.4176 48.6497 95.5739 50.4935C93.7301 52.3373 91.5412 53.7999 89.1322 54.7977C86.7231 55.7956 84.1412 56.3091 81.5337 56.3091L81.5337 46.3812C82.8374 46.3812 84.1284 46.1244 85.3329 45.6255C86.5374 45.1266 87.6319 44.3953 88.5538 43.4734C89.4757 42.5515 90.2069 41.4571 90.7059 40.2526C91.2048 39.0481 91.4616 37.7571 91.4616 36.4533C91.4616 35.1496 91.2048 33.8586 90.7059 32.6541C90.2069 31.4496 89.4757 30.3551 88.5538 29.4332C87.6319 28.5113 86.5374 27.7801 85.3329 27.2811C84.1284 26.7822 82.8374 26.5254 81.5337 26.5254V16.5975Z" fill="#001524"/>
</svg>
