<svg width="111" height="57" viewBox="0 0 111 57" fill="none" xmlns="http://www.w3.org/2000/svg">
<rect x="15.4903" y="22.2923" width="30.661" height="10.2673" transform="rotate(-45 15.4903 22.2923)" fill="#FED9B7"/>
<rect x="27.9679" y="16.5974" width="53.2693" height="9.92953" fill="#FED9B7"/>
<rect x="37.1709" y="43.9705" width="30.661" height="10.2673" transform="rotate(-135 37.1709 43.9705)" fill="#FED9B7"/>
<path d="M2.73223 51.3013V22.0044H13.5721C16.7231 22.0044 19.1645 22.675 20.8963 24.0161C22.6411 25.3443 23.5135 27.2128 23.5135 29.6216C23.5135 31.093 23.1684 32.3951 22.4783 33.5279C21.7882 34.6477 20.8572 35.5005 19.6854 36.0865C21.352 36.5812 22.6476 37.4341 23.5721 38.6451C24.5096 39.843 24.9783 41.3143 24.9783 43.0591C24.9783 44.7258 24.5682 46.1776 23.7479 47.4146C22.9406 48.6385 21.7947 49.5956 20.3104 50.2857C18.839 50.9628 17.1072 51.3013 15.115 51.3013H2.73223ZM8.74786 34.2701H13.24C14.5812 34.2701 15.6424 33.951 16.4236 33.313C17.2049 32.675 17.5955 31.8091 17.5955 30.7154C17.5955 29.6477 17.1984 28.8078 16.4041 28.1958C15.6229 27.5708 14.5356 27.2583 13.1424 27.2583H8.74786V34.2701ZM8.74786 46.0474H13.6111C14.6788 46.0474 15.6033 45.8977 16.3846 45.5982C17.1658 45.2857 17.7648 44.8495 18.1814 44.2896C18.6111 43.7167 18.826 43.0526 18.826 42.2974C18.826 41.5422 18.6307 40.8977 18.24 40.3638C17.8624 39.8299 17.3091 39.4263 16.5799 39.1529C15.8507 38.8664 14.9848 38.7232 13.9822 38.7232H8.74786V46.0474ZM46.0525 51.3013H41.1697L40.8768 48.9771C40.1606 49.8365 39.2752 50.507 38.2205 50.9888C37.1658 51.4576 36.007 51.6919 34.7439 51.6919C33.3768 51.6919 32.1593 51.4315 31.0916 50.9107C30.0239 50.3768 29.1841 49.6477 28.5721 48.7232C27.9601 47.7857 27.6541 46.7245 27.6541 45.5396C27.6541 44.2896 27.9861 43.1893 28.6502 42.2388C29.3143 41.2883 30.2257 40.5461 31.3846 40.0122C32.5564 39.4654 33.8846 39.1919 35.3689 39.1919C36.2413 39.1919 37.1137 39.2896 37.9861 39.4849C38.8716 39.6802 39.6919 39.9536 40.4471 40.3052V39.7974C40.4471 39.0161 40.2257 38.3456 39.783 37.7857C39.3533 37.2128 38.7544 36.7701 37.9861 36.4576C37.2309 36.1451 36.3846 35.9888 35.4471 35.9888C34.5486 35.9888 33.6567 36.132 32.7713 36.4185C31.8989 36.7049 31.0916 37.1346 30.3494 37.7076L28.826 33.4302C30.1411 32.7531 31.4692 32.2453 32.8104 31.9068C34.1645 31.5552 35.4731 31.3794 36.7361 31.3794C38.6372 31.3794 40.2843 31.757 41.6775 32.5122C43.0708 33.2544 44.145 34.3091 44.9002 35.6763C45.6684 37.0305 46.0525 38.6385 46.0525 40.5005V51.3013ZM35.9744 47.3755C36.7166 47.3755 37.4262 47.2128 38.1033 46.8872C38.7804 46.5617 39.3273 46.119 39.7439 45.5591C40.1736 44.9992 40.4015 44.3807 40.4275 43.7036V43.5669C39.8546 43.1763 39.2166 42.8768 38.5135 42.6685C37.8234 42.4471 37.1203 42.3365 36.4041 42.3365C35.3364 42.3365 34.464 42.5708 33.7869 43.0396C33.1098 43.5083 32.7713 44.1138 32.7713 44.856C32.7713 45.3378 32.908 45.774 33.1814 46.1646C33.4679 46.5422 33.852 46.8417 34.3338 47.063C34.8156 47.2714 35.3624 47.3755 35.9744 47.3755ZM67.7322 48.1958C66.7817 49.2896 65.6163 50.149 64.2361 50.774C62.8559 51.3859 61.339 51.6919 59.6854 51.6919C57.6801 51.6919 55.8833 51.2557 54.2947 50.3833C52.7192 49.4979 51.4757 48.287 50.5643 46.7505C49.6658 45.2141 49.2166 43.4758 49.2166 41.5357C49.2166 39.5826 49.6658 37.8443 50.5643 36.3208C51.4757 34.7844 52.7192 33.5799 54.2947 32.7076C55.8833 31.8221 57.6801 31.3794 59.6854 31.3794C61.326 31.3794 62.8364 31.6854 64.2166 32.2974C65.5968 32.9094 66.7622 33.7557 67.7127 34.8365L64.4119 38.2935C63.9041 37.7076 63.2596 37.2518 62.4783 36.9263C61.7101 36.5878 60.9028 36.4185 60.0564 36.4185C59.0799 36.4185 58.2075 36.6398 57.4393 37.0826C56.671 37.5122 56.0656 38.1112 55.6229 38.8794C55.1801 39.6346 54.9588 40.507 54.9588 41.4966C54.9588 42.4992 55.1801 43.3911 55.6229 44.1724C56.0656 44.9536 56.671 45.5656 57.4393 46.0083C58.2075 46.438 59.0799 46.6529 60.0564 46.6529C60.9028 46.6529 61.7166 46.4901 62.4979 46.1646C63.2791 45.826 63.9171 45.3638 64.4119 44.7779L67.7322 48.1958ZM76.7752 51.3013H71.1697V22.0044H76.7752V40.0122L78.6893 37.7076L84.3143 31.7701H91.326L83.0643 40.4615L92.3025 51.3013H85.0564L79.2166 43.9771L76.7752 46.2036V51.3013Z" fill="#F07167"/>
<path d="M81.0302 16.5975C83.6377 16.5975 86.2196 17.1111 88.6287 18.1089C91.0377 19.1068 93.2266 20.5694 95.0703 22.4131C96.9141 24.2569 98.3767 26.4458 99.3745 28.8548C100.372 31.2639 100.886 33.8458 100.886 36.4533C100.886 39.0608 100.372 41.6428 99.3745 44.0518C98.3767 46.4608 96.9141 48.6497 95.0703 50.4935C93.2266 52.3373 91.0377 53.7999 88.6287 54.7977C86.2196 55.7956 83.6377 56.3091 81.0302 56.3091L81.0302 46.3812C82.3339 46.3812 83.6249 46.1244 84.8294 45.6255C86.0339 45.1266 87.1284 44.3953 88.0503 43.4734C88.9721 42.5515 89.7034 41.4571 90.2024 40.2526C90.7013 39.0481 90.9581 37.7571 90.9581 36.4533C90.9581 35.1496 90.7013 33.8586 90.2024 32.6541C89.7034 31.4496 88.9722 30.3551 88.0503 29.4332C87.1284 28.5113 86.0339 27.7801 84.8294 27.2811C83.6249 26.7822 82.3339 26.5254 81.0302 26.5254V16.5975Z" fill="#FED9B7"/>
</svg>
