<svg width="111" height="57" viewBox="0 0 111 57" fill="none" xmlns="http://www.w3.org/2000/svg">
<rect x="16.0829" y="22.2923" width="30.661" height="10.2673" transform="rotate(-45 16.0829 22.2923)" fill="#41EAD4"/>
<rect x="28.5604" y="16.5974" width="53.2693" height="9.92953" fill="#41EAD4"/>
<rect x="37.7635" y="43.9705" width="30.661" height="10.2673" transform="rotate(-135 37.7635 43.9705)" fill="#41EAD4"/>
<path d="M3.32477 51.3013V22.0044H14.1646C17.3157 22.0044 19.7571 22.675 21.4888 24.0161C23.2336 25.3443 24.106 27.2128 24.106 29.6216C24.106 31.093 23.761 32.3951 23.0709 33.5279C22.3808 34.6477 21.4498 35.5005 20.2779 36.0865C21.9446 36.5812 23.2401 37.4341 24.1646 38.6451C25.1021 39.843 25.5709 41.3143 25.5709 43.0591C25.5709 44.7258 25.1607 46.1776 24.3404 47.4146C23.5331 48.6385 22.3873 49.5956 20.9029 50.2857C19.4315 50.9628 17.6998 51.3013 15.7076 51.3013H3.32477ZM9.34039 34.2701H13.8326C15.1737 34.2701 16.2349 33.951 17.0162 33.313C17.7974 32.675 18.188 31.8091 18.188 30.7154C18.188 29.6477 17.7909 28.8078 16.9966 28.1958C16.2154 27.5708 15.1282 27.2583 13.7349 27.2583H9.34039V34.2701ZM9.34039 46.0474H14.2037C15.2714 46.0474 16.1959 45.8977 16.9771 45.5982C17.7584 45.2857 18.3573 44.8495 18.774 44.2896C19.2037 43.7167 19.4185 43.0526 19.4185 42.2974C19.4185 41.5422 19.2232 40.8977 18.8326 40.3638C18.455 39.8299 17.9016 39.4263 17.1724 39.1529C16.4433 38.8664 15.5774 38.7232 14.5748 38.7232H9.34039V46.0474ZM46.6451 51.3013H41.7623L41.4693 48.9771C40.7532 49.8365 39.8677 50.507 38.813 50.9888C37.7584 51.4576 36.5995 51.6919 35.3365 51.6919C33.9693 51.6919 32.7519 51.4315 31.6841 50.9107C30.6164 50.3768 29.7766 49.6477 29.1646 48.7232C28.5526 47.7857 28.2466 46.7245 28.2466 45.5396C28.2466 44.2896 28.5787 43.1893 29.2427 42.2388C29.9068 41.2883 30.8183 40.5461 31.9771 40.0122C33.149 39.4654 34.4771 39.1919 35.9615 39.1919C36.8339 39.1919 37.7063 39.2896 38.5787 39.4849C39.4641 39.6802 40.2844 39.9536 41.0396 40.3052V39.7974C41.0396 39.0161 40.8183 38.3456 40.3755 37.7857C39.9459 37.2128 39.3469 36.7701 38.5787 36.4576C37.8235 36.1451 36.9771 35.9888 36.0396 35.9888C35.1412 35.9888 34.2492 36.132 33.3638 36.4185C32.4914 36.7049 31.6841 37.1346 30.942 37.7076L29.4185 33.4302C30.7336 32.7531 32.0617 32.2453 33.4029 31.9068C34.7571 31.5552 36.0657 31.3794 37.3287 31.3794C39.2297 31.3794 40.8769 31.757 42.2701 32.5122C43.6633 33.2544 44.7375 34.3091 45.4927 35.6763C46.261 37.0305 46.6451 38.6385 46.6451 40.5005V51.3013ZM36.567 47.3755C37.3091 47.3755 38.0188 47.2128 38.6959 46.8872C39.3729 46.5617 39.9198 46.119 40.3365 45.5591C40.7662 44.9992 40.994 44.3807 41.0201 43.7036V43.5669C40.4472 43.1763 39.8091 42.8768 39.106 42.6685C38.4159 42.4471 37.7128 42.3365 36.9966 42.3365C35.9289 42.3365 35.0565 42.5708 34.3795 43.0396C33.7024 43.5083 33.3638 44.1138 33.3638 44.856C33.3638 45.3378 33.5005 45.774 33.774 46.1646C34.0604 46.5422 34.4446 46.8417 34.9263 47.063C35.4081 47.2714 35.955 47.3755 36.567 47.3755ZM68.3248 48.1958C67.3742 49.2896 66.2089 50.149 64.8287 50.774C63.4485 51.3859 61.9315 51.6919 60.2779 51.6919C58.2727 51.6919 56.4758 51.2557 54.8873 50.3833C53.3117 49.4979 52.0683 48.287 51.1568 46.7505C50.2584 45.2141 49.8091 43.4758 49.8091 41.5357C49.8091 39.5826 50.2584 37.8443 51.1568 36.3208C52.0683 34.7844 53.3117 33.5799 54.8873 32.7076C56.4758 31.8221 58.2727 31.3794 60.2779 31.3794C61.9185 31.3794 63.4289 31.6854 64.8091 32.2974C66.1894 32.9094 67.3547 33.7557 68.3052 34.8365L65.0045 38.2935C64.4966 37.7076 63.8521 37.2518 63.0709 36.9263C62.3026 36.5878 61.4953 36.4185 60.649 36.4185C59.6724 36.4185 58.8 36.6398 58.0318 37.0826C57.2636 37.5122 56.6581 38.1112 56.2154 38.8794C55.7727 39.6346 55.5513 40.507 55.5513 41.4966C55.5513 42.4992 55.7727 43.3911 56.2154 44.1724C56.6581 44.9536 57.2636 45.5656 58.0318 46.0083C58.8 46.438 59.6724 46.6529 60.649 46.6529C61.4953 46.6529 62.3091 46.4901 63.0904 46.1646C63.8716 45.826 64.5097 45.3638 65.0045 44.7779L68.3248 48.1958ZM77.3677 51.3013H71.7623V22.0044H77.3677V40.0122L79.2818 37.7076L84.9068 31.7701H91.9185L83.6568 40.4615L92.8951 51.3013H85.649L79.8091 43.9771L77.3677 46.2036V51.3013Z" fill="#FF206E"/>
<path d="M81.6227 16.5975C84.2302 16.5975 86.8122 17.1111 89.2212 18.1089C91.6302 19.1068 93.8191 20.5694 95.6629 22.4131C97.5067 24.2569 98.9693 26.4458 99.9671 28.8548C100.965 31.2639 101.479 33.8458 101.479 36.4533C101.479 39.0608 100.965 41.6428 99.9671 44.0518C98.9693 46.4608 97.5067 48.6497 95.6629 50.4935C93.8191 52.3373 91.6302 53.7999 89.2212 54.7977C86.8122 55.7956 84.2302 56.3091 81.6227 56.3091L81.6227 46.3812C82.9265 46.3812 84.2175 46.1244 85.422 45.6255C86.6265 45.1266 87.7209 44.3953 88.6428 43.4734C89.5647 42.5515 90.296 41.4571 90.7949 40.2526C91.2938 39.0481 91.5506 37.7571 91.5506 36.4533C91.5506 35.1496 91.2938 33.8586 90.7949 32.6541C90.296 31.4496 89.5647 30.3551 88.6428 29.4332C87.7209 28.5113 86.6265 27.7801 85.422 27.2811C84.2175 26.7822 82.9265 26.5254 81.6227 26.5254V16.5975Z" fill="#41EAD4"/>
</svg>
