<svg width="320" height="320" viewBox="0 0 320 320" fill="none" xmlns="http://www.w3.org/2000/svg">
<g clip-path="url(#clip0_22_9)">
<rect width="320" height="320" fill="#F5F5F5"/>
<path d="M138 43.4668C130 46.4001 122.933 54.0001 117.733 65.3334C112 77.7334 101.333 108.533 101.333 112.8C101.333 114.533 100.533 118.533 99.4666 121.6C98.4 124.8 96.6666 132.133 95.4666 138C94.2666 143.867 92.1333 153.733 90.6666 160C89.0666 166.267 88 172.667 88 174.133C88 175.733 87.0666 179.6 85.8666 182.8C84.6666 186 82.4 195.2 80.8 203.333L77.8666 218H67.2C48.1333 218.133 40.8 224.4 41.6 239.467C42.2666 249.733 46.6666 256.933 55.6 262.267C61.7333 265.867 62.6666 266 79.3333 265.867C90.2666 265.733 99.8666 264.933 105.467 263.6C116.133 261.067 132.533 253.067 135.333 249.067C137.867 245.333 137.867 236 135.333 229.733C132.133 222.133 132.8 217.867 137.867 212.267L142.4 207.333H156.267C167.867 207.333 170.8 207.867 175.6 210.267C178.667 212 181.6 214.533 182 216C182.8 218.667 182 229.867 180.533 234.933C179.6 238.133 172.133 242.133 164.667 243.333C156.667 244.4 148.933 248.267 146.133 252.267C144.667 254.267 144 258.267 144 264.8C144 277.333 145.6 279.2 158.667 282.133C191.733 289.333 207.067 288 231.867 275.6C241.067 271.067 243.333 269.2 244.933 265.467C248.667 256.8 246.8 147.733 242.533 116C238.133 83.3334 221.067 53.6001 203.333 47.6001C190.133 43.0668 146.533 40.4001 138 43.4668ZM180 54.9334C195.867 56.5334 198.933 57.8668 207.6 66.6668C217.733 76.8001 228 99.2001 228 111.067C228 114.133 228.933 122.4 229.867 129.333C232.4 145.733 234 187.067 233.867 226.933C233.733 254.267 233.467 258.933 231.467 262C228.533 266.4 215.067 272.533 204 274.533C194.133 276.133 167.6 274.667 160.267 272C154.667 269.867 153.333 265.067 156.933 260.267C160.8 255.067 165.733 253.067 177.2 252.133L187.2 251.333L188.667 245.2C189.6 241.867 190.667 232.8 191.2 224.933C192.8 201.2 188.8 197.2 160.933 194.667C144.267 193.067 135.333 194.4 128.267 199.333C120.933 204.533 119.6 216.133 124.533 230.4C128.8 242.267 121.6 249.067 100.667 252.8C89.0666 254.933 72.9333 255.067 66 253.2C59.4666 251.333 52 244.133 52 239.6C52 237.467 53.3333 235.067 55.4666 233.467C59.7333 230 70.9333 229.733 80.6666 232.667C92 236 91.2 237.467 98 196C107.467 138.267 109.6 128.933 121.2 93.4668C131.733 61.4668 135.333 55.8668 146.667 54.4001C153.867 53.4668 167.867 53.6001 180 54.9334Z" fill="black"/>
<path d="M148.667 77.4669C136.933 79.2002 134.133 81.8669 133.6 91.3336C133.2 98.6669 133.333 99.0669 138.533 104C148 113.067 159.733 115.067 180.933 111.467C202.8 107.6 211.2 98.6669 204 87.0669C200.4 80.9336 194.667 78.5336 180.8 77.2002C166.533 75.8669 159.467 75.8669 148.667 77.4669ZM189.733 85.8669C195.733 88.2669 198.667 93.0669 195.467 95.3336C193.333 96.9336 173.733 100 165.6 100C159.6 100 153.333 97.0669 148.8 92.2669C141.733 84.6669 147.6 82.5336 172.267 83.4669C179.467 83.7336 187.2 84.6669 189.733 85.8669Z" fill="black"/>
</g>
<defs>
<clipPath id="clip0_22_9">
<rect width="320" height="320" fill="white"/>
</clipPath>
</defs>
</svg>
